<svg width="29" height="28" viewBox="0 0 29 28" fill="none" xmlns="http://www.w3.org/2000/svg">
<path fill-rule="evenodd" clip-rule="evenodd" d="M8.92404 0.0820241C10.3818 0.0149135 10.8466 0 14.5601 0C18.2736 0 18.7384 0.0161563 20.1949 0.0820241C21.6515 0.147892 22.6457 0.380294 23.5156 0.71709C24.4266 1.06134 25.2531 1.59947 25.9366 2.29543C26.6326 2.97773 27.1695 3.80294 27.5125 4.71515C27.8505 5.5851 28.0817 6.57933 28.1488 8.0334C28.2159 9.49368 28.2308 9.95848 28.2308 13.6707C28.2308 17.3842 28.2146 17.849 28.1488 19.3067C28.0829 20.7608 27.8505 21.755 27.5125 22.625C27.1694 23.5373 26.6317 24.3639 25.9366 25.0472C25.2531 25.7432 24.4266 26.28 23.5156 26.6231C22.6457 26.9611 21.6515 27.1923 20.1974 27.2594C18.7384 27.3265 18.2736 27.3414 14.5601 27.3414C10.8466 27.3414 10.3818 27.3252 8.92404 27.2594C7.46998 27.1935 6.47575 26.9611 5.60579 26.6231C4.69349 26.28 3.86691 25.7422 3.1836 25.0472C2.4881 24.3645 1.9499 23.5383 1.60649 22.6262C1.2697 21.7563 1.03854 20.7621 0.971428 19.308C0.904318 17.8477 0.889404 17.3829 0.889404 13.6707C0.889404 9.95724 0.905561 9.49243 0.971428 8.03588C1.0373 6.57933 1.2697 5.5851 1.60649 4.71515C1.9504 3.80304 2.48902 2.97687 3.18484 2.29419C3.86718 1.59885 4.69293 1.06065 5.60455 0.71709C6.4745 0.380294 7.46874 0.149135 8.9228 0.0820241H8.92404ZM20.0843 2.54275C18.6427 2.47688 18.2102 2.46321 14.5601 2.46321C10.91 2.46321 10.4775 2.47688 9.03589 2.54275C7.70238 2.60365 6.97908 2.82611 6.49687 3.01377C5.85932 3.26232 5.40322 3.55687 4.92474 4.03534C4.47118 4.47659 4.12213 5.01377 3.90317 5.60747C3.71551 6.08967 3.49305 6.81298 3.43215 8.14649C3.36629 9.58813 3.35261 10.0206 3.35261 13.6707C3.35261 17.3208 3.36629 17.7533 3.43215 19.1949C3.49305 20.5284 3.71551 21.2517 3.90317 21.7339C4.1219 22.3267 4.47113 22.8649 4.92474 23.306C5.36594 23.7597 5.90406 24.1089 6.49687 24.3276C6.97908 24.5153 7.70238 24.7377 9.03589 24.7986C10.4775 24.8645 10.9088 24.8782 14.5601 24.8782C18.2114 24.8782 18.6427 24.8645 20.0843 24.7986C21.4178 24.7377 22.1411 24.5153 22.6233 24.3276C23.2609 24.0791 23.717 23.7845 24.1955 23.306C24.6491 22.8649 24.9983 22.3267 25.217 21.7339C25.4047 21.2517 25.6271 20.5284 25.688 19.1949C25.7539 17.7533 25.7676 17.3208 25.7676 13.6707C25.7676 10.0206 25.7539 9.58813 25.688 8.14649C25.6271 6.81298 25.4047 6.08967 25.217 5.60747C24.9685 4.96992 24.6739 4.51381 24.1955 4.03534C23.7542 3.58181 23.217 3.23276 22.6233 3.01377C22.1411 2.82611 21.4178 2.60365 20.0843 2.54275ZM12.814 17.885C13.7891 18.2909 14.875 18.3457 15.8861 18.04C16.8971 17.7343 17.7707 17.087 18.3576 16.2088C18.9444 15.3305 19.2082 14.2758 19.1038 13.2247C18.9994 12.1736 18.5333 11.1913 17.7851 10.4457C17.3082 9.96901 16.7315 9.60405 16.0966 9.37704C15.4617 9.15002 14.7843 9.0666 14.1133 9.13279C13.4423 9.19897 12.7943 9.41311 12.216 9.75979C11.6376 10.1065 11.1433 10.5771 10.7687 11.1377C10.3941 11.6983 10.1484 12.3351 10.0494 13.002C9.95039 13.669 10.0005 14.3496 10.1961 14.9949C10.3917 15.6402 10.7279 16.2341 11.1806 16.7338C11.6333 17.2336 12.1911 17.6267 12.814 17.885ZM9.59142 8.70202C10.2439 8.04952 11.0185 7.53193 11.8711 7.17881C12.7236 6.82568 13.6373 6.64392 14.5601 6.64392C15.4829 6.64392 16.3966 6.82568 17.2491 7.17881C18.1017 7.53193 18.8763 8.04952 19.5288 8.70202C20.1813 9.35451 20.6989 10.1291 21.052 10.9817C21.4051 11.8342 21.5869 12.7479 21.5869 13.6707C21.5869 14.5935 21.4051 15.5072 21.052 16.3597C20.6989 17.2122 20.1813 17.9869 19.5288 18.6394C18.211 19.9571 16.4237 20.6975 14.5601 20.6975C12.6965 20.6975 10.9092 19.9571 9.59142 18.6394C8.27365 17.3216 7.53333 15.5343 7.53333 13.6707C7.53333 11.8071 8.27365 10.0198 9.59142 8.70202ZM23.1453 7.69039C23.307 7.53786 23.4364 7.35444 23.526 7.15098C23.6155 6.94753 23.6633 6.72818 23.6665 6.50592C23.6698 6.28366 23.6284 6.06301 23.5448 5.85703C23.4613 5.65106 23.3372 5.46394 23.18 5.30676C23.0229 5.14959 22.8358 5.02554 22.6298 4.94198C22.4238 4.85841 22.2031 4.81703 21.9809 4.82027C21.7586 4.82351 21.5393 4.87131 21.3358 4.96084C21.1324 5.05038 20.9489 5.17982 20.7964 5.34151C20.4998 5.65598 20.3374 6.07367 20.3437 6.50592C20.35 6.93817 20.5245 7.35095 20.8302 7.65664C21.1359 7.96232 21.5486 8.13683 21.9809 8.14313C22.4131 8.14944 22.8308 7.98703 23.1453 7.69039Z" fill="#1AB9CC"/>
</svg>
