<svg width="15" height="19" viewBox="0 0 15 19" fill="none" xmlns="http://www.w3.org/2000/svg">
<path d="M7.5 0C3.36448 0 0 3.26284 0 7.27344C0 8.5572 0.349745 9.81933 1.01139 10.9233C1.16564 11.1807 1.33806 11.4315 1.52395 11.6689L7.17413 19H7.82583L13.476 11.6689C13.6619 11.4315 13.8343 11.1808 13.9886 10.9234C14.6503 9.81933 15 8.5572 15 7.27344C15 3.26284 11.6355 0 7.5 0ZM7.5 9.68555C6.12853 9.68555 5.01275 8.60347 5.01275 7.27344C5.01275 5.9434 6.12853 4.86133 7.5 4.86133C8.87147 4.86133 9.98724 5.9434 9.98724 7.27344C9.98724 8.60347 8.87147 9.68555 7.5 9.68555Z" fill="#1AB9CC"/>
</svg>
