<svg width="261" height="47" viewBox="0 0 261 47" fill="none" xmlns="http://www.w3.org/2000/svg">
<path d="M65.7504 34.0727C62.556 34.0727 60.062 33.1631 58.2685 31.344C56.475 29.5248 55.577 26.9654 55.5744 23.6658C55.5561 21.8984 55.904 20.1464 56.5963 18.52C57.2559 16.9755 58.3462 15.6535 59.7368 14.7117C61.148 13.7419 62.8889 13.2576 64.9595 13.2588C66.898 13.2588 68.5735 13.7079 69.9859 14.6059C71.3777 15.4834 72.4941 16.7352 73.2073 18.2179C73.9473 19.7552 74.3233 21.4422 74.3061 23.1481C74.3137 23.3856 74.2718 23.6221 74.1831 23.8425C74.0944 24.063 73.9609 24.2626 73.791 24.4287C73.6211 24.5948 73.4185 24.7237 73.1962 24.8074C72.9738 24.8911 72.7364 24.9276 72.4992 24.9147H59.1922C59.4013 26.7467 60.0819 28.1739 61.234 29.1964C62.386 30.2189 63.9961 30.732 66.0641 30.7359C67.0355 30.7505 68.005 30.6452 68.9506 30.4222C69.7857 30.2088 70.5953 29.9062 71.3657 29.5197C71.5852 29.4117 71.8273 29.3576 72.072 29.3619C72.4806 29.3577 72.8748 29.5131 73.1708 29.7949C73.3246 29.9327 73.4465 30.1024 73.528 30.2922C73.6094 30.482 73.6484 30.6872 73.6422 30.8937C73.6422 31.4697 73.3023 31.954 72.6223 32.3466C71.6672 32.8938 70.6521 33.329 69.5972 33.6436C68.603 33.9297 67.3207 34.0727 65.7504 34.0727ZM70.7769 22.0166C70.6973 20.7337 70.3631 19.6599 69.7743 18.7952C69.2352 17.9741 68.4819 17.316 67.5959 16.892C66.7767 16.4907 65.8766 16.282 64.9643 16.282C64.0521 16.282 63.152 16.4907 62.3328 16.892C61.4499 17.313 60.7021 17.9721 60.1736 18.7952C59.5976 19.6599 59.2705 20.7337 59.1922 22.0166H70.7769ZM80.7104 9.566C80.1797 9.56449 79.6712 9.35327 79.2956 8.97838C78.92 8.6035 78.7078 8.09534 78.7052 7.56467V7.40687C78.7072 6.87653 78.9187 6.36846 79.2935 5.99327C79.6683 5.61808 80.1762 5.40615 80.7066 5.40361H80.9433C81.4736 5.40615 81.9815 5.61808 82.3563 5.99327C82.7311 6.36846 82.9426 6.87653 82.9446 7.40687V7.56467C82.9421 8.09468 82.7304 8.60225 82.3556 8.97703C81.9808 9.35181 81.4733 9.56347 80.9433 9.566H80.7104ZM80.7893 33.8687C80.5564 33.8721 80.3252 33.8287 80.1093 33.7411C79.8935 33.6536 79.6974 33.5236 79.5326 33.3588C79.3679 33.1941 79.2379 32.998 79.1503 32.7822C79.0628 32.5663 79.0194 32.3351 79.0227 32.1022V15.2621C79.0184 15.0259 79.0613 14.7912 79.1488 14.5718C79.2364 14.3524 79.3669 14.1526 79.5327 13.9843C79.6936 13.8133 79.8885 13.6778 80.105 13.5867C80.3214 13.4955 80.5545 13.4507 80.7893 13.4551C81.0289 13.4465 81.2677 13.4874 81.4909 13.5751C81.714 13.6629 81.9166 13.7957 82.0862 13.9652C82.2557 14.1348 82.3885 14.3374 82.4763 14.5605C82.564 14.7837 82.6049 15.0225 82.5963 15.2621V32.1099C82.6008 32.3449 82.5559 32.5782 82.4643 32.7947C82.3728 33.0111 82.2368 33.206 82.0652 33.3665C81.8966 33.5309 81.697 33.66 81.4779 33.7463C81.2588 33.8325 81.0247 33.8742 80.7893 33.8687ZM98.1413 43.1057C96.5909 43.1016 95.0472 42.9038 93.5459 42.5168C92.2166 42.207 90.9354 41.7183 89.7376 41.0639C89.2667 40.7753 89.0307 40.3166 89.0294 39.688C89.0297 39.2708 89.1918 38.87 89.4816 38.57C89.6218 38.4121 89.7945 38.2865 89.9878 38.2018C90.1811 38.117 90.3906 38.0752 90.6016 38.0792C90.8447 38.0864 91.0843 38.1393 91.3079 38.2351C93.3201 39.2357 95.54 39.7473 97.7872 39.7284C101.791 39.7284 103.794 37.5943 103.795 33.3261V30.6955C101.94 32.6827 99.7038 33.6763 97.0867 33.6763C95.5151 33.6704 93.9696 33.2736 92.5895 32.5217C91.1003 31.7137 89.8585 30.5165 88.9967 29.0578C88.0538 27.5261 87.5823 25.6607 87.5823 23.4618C87.5823 21.2629 88.0538 19.3976 88.9967 17.8658C89.8585 16.4071 91.1003 15.2099 92.5895 14.4019C93.9692 13.6491 95.5149 13.2523 97.0867 13.2473C99.7038 13.2473 101.942 14.2422 103.801 16.232V15.2506C103.797 15.0144 103.84 14.7799 103.928 14.5605C104.015 14.3412 104.145 14.1414 104.311 13.9728C104.472 13.8017 104.667 13.6663 104.883 13.5751C105.099 13.484 105.333 13.4392 105.567 13.4436C105.806 13.4431 106.042 13.4898 106.263 13.5811C106.483 13.6724 106.683 13.8065 106.852 13.9755C107.02 14.1446 107.153 14.3454 107.244 14.5662C107.334 14.787 107.38 15.0235 107.378 15.2621V32.8161C107.378 36.1145 106.58 38.654 104.982 40.4347C103.385 42.2153 101.105 43.1057 98.1413 43.1057ZM97.8257 30.4203C98.9637 30.4445 100.089 30.1741 101.091 29.6352C102.094 29.0666 103.007 28.3533 103.801 27.5184V19.436C103.007 18.6011 102.094 17.8878 101.091 17.3192C100.09 16.7813 98.9675 16.5109 97.8314 16.5341C95.8686 16.5341 94.265 17.1294 93.0205 18.3199C91.7761 19.5105 91.1545 21.2295 91.1558 23.4772C91.1558 25.7287 91.778 27.4504 93.0225 28.6422C94.2669 29.834 95.8699 30.4267 97.8314 30.4203H97.8257ZM115.337 33.8841C115.104 33.8872 114.873 33.8437 114.657 33.756C114.442 33.6684 114.245 33.5384 114.081 33.3737C113.916 33.2091 113.786 33.0132 113.698 32.7974C113.61 32.5817 113.566 32.3505 113.569 32.1176V6.62173C113.565 6.38567 113.608 6.15116 113.696 5.93203C113.784 5.71291 113.915 5.51361 114.081 5.34588C114.242 5.17198 114.438 5.03434 114.656 4.94211C114.875 4.84987 115.11 4.80515 115.347 4.81091C115.826 4.81243 116.284 5.00336 116.622 5.34196C116.961 5.68056 117.151 6.13929 117.152 6.61788V16.8709C118.078 15.8275 119.166 14.9394 120.373 14.2403C121.528 13.586 122.889 13.2588 124.457 13.2588C125.78 13.2268 127.083 13.5813 128.207 14.2788C129.266 14.9591 130.111 15.9261 130.642 17.0672C131.213 18.2834 131.501 19.6128 131.487 20.9563V32.1176C131.491 32.3526 131.446 32.5859 131.355 32.8024C131.263 33.0188 131.127 33.2137 130.955 33.3742C130.787 33.5397 130.588 33.6701 130.369 33.7577C130.15 33.8452 129.915 33.8882 129.68 33.8841C129.447 33.8875 129.215 33.8441 129 33.7565C128.784 33.6689 128.588 33.5389 128.423 33.3742C128.258 33.2095 128.128 33.0134 128.041 32.7976C127.953 32.5817 127.91 32.3505 127.913 32.1176V21.3489C127.913 18.1544 126.473 16.5572 123.593 16.5572C122.346 16.5392 121.122 16.8951 120.079 17.579C118.964 18.3339 117.976 19.2615 117.152 20.327V32.1099C117.156 32.3447 117.112 32.5778 117.02 32.7942C116.929 33.0106 116.794 33.2056 116.623 33.3665C116.454 33.5307 116.254 33.6596 116.035 33.7458C115.816 33.8321 115.582 33.8738 115.347 33.8687L115.337 33.8841ZM143.924 34.0766C140.102 34.0766 138.191 32.3485 138.191 28.8923V16.715H135.412C135.314 16.7155 135.217 16.6967 135.127 16.6596C135.036 16.6225 134.954 16.5678 134.885 16.4988C134.815 16.4298 134.76 16.3477 134.723 16.2573C134.685 16.167 134.666 16.0701 134.666 15.9722C134.667 15.8407 134.7 15.7115 134.762 15.5953C134.823 15.4791 134.912 15.3794 135.02 15.3044L140.36 10.0817C140.527 9.87996 140.767 9.75263 141.028 9.72765C141.128 9.72626 141.227 9.74671 141.319 9.78757C141.411 9.82844 141.493 9.88876 141.559 9.96434C141.7 10.1119 141.777 10.3088 141.774 10.5128V13.6514H146.212C146.514 13.6526 146.809 13.7426 147.06 13.9102C147.311 14.0778 147.507 14.3155 147.625 14.5938C147.742 14.8721 147.774 15.1787 147.718 15.4755C147.663 15.7723 147.521 16.046 147.311 16.2628C147.169 16.4111 146.999 16.5281 146.809 16.606C146.62 16.6839 146.416 16.7211 146.212 16.715H141.774V28.5748C141.774 29.6012 142.017 30.249 142.502 30.5184C143.064 30.812 143.692 30.954 144.326 30.9302C144.859 30.9296 145.388 30.8505 145.898 30.6955C146.002 30.6685 146.114 30.6435 146.231 30.6166C146.38 30.5884 146.532 30.5755 146.683 30.5781C146.866 30.5785 147.047 30.6152 147.215 30.6859C147.384 30.7565 147.536 30.8599 147.665 30.9899C147.803 31.1167 147.913 31.2715 147.988 31.444C148.062 31.6165 148.099 31.8028 148.096 31.9906C148.096 32.5929 147.796 33.0528 147.193 33.3665C146.174 33.8366 145.064 34.0777 143.941 34.0727L143.924 34.0766ZM155.277 33.8841C155.044 33.8872 154.813 33.8437 154.597 33.756C154.382 33.6684 154.186 33.5384 154.021 33.3737C153.856 33.2091 153.726 33.0132 153.638 32.7974C153.55 32.5817 153.506 32.3505 153.509 32.1176V16.7227H151.2C150.791 16.7227 150.4 16.5605 150.111 16.2718C149.822 15.9831 149.66 15.5915 149.66 15.1832C149.654 14.9784 149.691 14.7746 149.768 14.585C149.846 14.3954 149.963 14.2242 150.111 14.0825C150.253 13.9431 150.422 13.8332 150.607 13.7592C150.793 13.6853 150.991 13.6486 151.19 13.6514H153.499V11.373C153.499 9.8027 153.781 8.51338 154.344 7.50501C154.838 6.56617 155.605 5.79921 156.544 5.30547C157.429 4.85043 158.41 4.61482 159.405 4.61847C160.59 4.60772 161.761 4.87672 162.823 5.40361C163.085 5.53647 163.308 5.73547 163.469 5.98092C163.636 6.21607 163.725 6.49714 163.725 6.7853C163.726 6.97872 163.688 7.17032 163.614 7.34902C163.54 7.52772 163.431 7.68997 163.294 7.82638C163.165 7.96882 163.007 8.08238 162.831 8.15964C162.655 8.23691 162.465 8.27613 162.272 8.27476C161.968 8.27301 161.665 8.23358 161.37 8.15737C160.741 8.07847 160.389 8.03999 160.31 8.03999C159.236 8.03999 158.431 8.28823 157.895 8.78471C157.358 9.2812 157.09 10.1844 157.088 11.4942V13.6514H161.997C162.299 13.6523 162.595 13.742 162.846 13.9094C163.098 14.0768 163.294 14.3145 163.412 14.5929C163.529 14.8713 163.562 15.1781 163.506 15.475C163.45 15.772 163.308 16.0459 163.098 16.2628C162.956 16.411 162.785 16.5278 162.596 16.6057C162.406 16.6836 162.202 16.7209 161.997 16.715H157.088V32.1099C157.093 32.3447 157.049 32.578 156.957 32.7945C156.866 33.011 156.73 33.2059 156.559 33.3665C156.39 33.5307 156.191 33.6596 155.972 33.7458C155.753 33.8321 155.519 33.8738 155.283 33.8687L155.277 33.8841ZM174.713 34.0766C172.697 34.0766 170.93 33.6449 169.412 32.7815C167.904 31.9296 166.682 30.6516 165.898 29.1079C165.073 27.5235 164.661 25.7107 164.661 23.6696C164.661 21.6285 165.073 19.8151 165.898 18.2295C166.684 16.6841 167.909 15.4055 169.42 14.5539C170.937 13.6905 172.708 13.2588 174.731 13.2588C176.721 13.2588 178.474 13.6905 179.992 14.5539C181.501 15.4091 182.73 16.6848 183.527 18.2256C184.363 19.8113 184.782 21.6247 184.784 23.6658C184.785 25.7069 184.366 27.5196 183.527 29.104C182.73 30.6458 181.502 31.9222 179.992 32.7776C178.468 33.6423 176.714 34.074 174.731 34.0727L174.713 34.0766ZM174.713 30.8167C175.785 30.8168 176.84 30.5608 177.792 30.0701C178.819 29.5365 179.668 28.717 180.238 27.7108C180.88 26.637 181.2 25.2758 181.2 23.6273C181.2 22.0031 180.88 20.6561 180.238 19.5861C179.676 18.5845 178.831 17.7702 177.81 17.2442C176.853 16.7671 175.799 16.5187 174.731 16.5187C173.648 16.515 172.579 16.7634 171.609 17.2442C170.589 17.7648 169.748 18.5792 169.194 19.5823C168.566 20.6535 168.251 22.0006 168.251 23.6234C168.251 25.272 168.566 26.6331 169.194 27.7069C169.751 28.7122 170.591 29.5314 171.609 30.0624C172.575 30.5582 173.645 30.8156 174.731 30.8129L174.713 30.8167ZM191.528 33.8687C191.296 33.8718 191.064 33.8283 190.849 33.7406C190.633 33.653 190.437 33.523 190.272 33.3584C190.107 33.1937 189.977 32.9978 189.889 32.782C189.801 32.5663 189.757 32.3351 189.76 32.1022V6.62173C189.756 6.38567 189.799 6.15116 189.887 5.93203C189.975 5.71291 190.106 5.51361 190.272 5.34588C190.432 5.1734 190.627 5.03661 190.843 4.94443C191.06 4.85226 191.293 4.80676 191.528 4.81091C191.768 4.80257 192.007 4.84361 192.229 4.9315C192.452 5.01938 192.655 5.15221 192.824 5.32172C192.993 5.49124 193.126 5.6938 193.214 5.91679C193.301 6.13979 193.342 6.37844 193.334 6.61788V32.1099C193.338 32.3447 193.294 32.578 193.203 32.7945C193.111 33.011 192.976 33.2059 192.804 33.3665C192.636 33.5307 192.436 33.6596 192.217 33.7458C191.998 33.8321 191.764 33.8738 191.528 33.8687ZM207.824 34.0612C206.202 34.0632 204.609 33.6363 203.206 32.8238C201.718 31.9667 200.495 30.7172 199.67 29.2118C198.772 27.6274 198.323 25.7749 198.323 23.6542C198.323 21.5336 198.772 19.6811 199.67 18.0967C200.499 16.5948 201.723 15.3493 203.211 14.4962C204.615 13.6837 206.208 13.2568 207.83 13.2588C210.396 13.2588 212.634 14.2537 214.546 16.2435V6.62173C214.539 6.38061 214.582 6.14068 214.673 5.91733C214.764 5.69398 214.901 5.49213 215.075 5.32471C215.243 5.15916 215.442 5.02878 215.662 4.94122C215.881 4.85366 216.115 4.81067 216.351 4.81476C216.586 4.80987 216.819 4.85466 217.036 4.94618C217.252 5.03771 217.447 5.17391 217.607 5.34588C217.774 5.51361 217.904 5.71291 217.992 5.93203C218.08 6.15116 218.123 6.38567 218.119 6.62173V32.1099C218.122 32.3428 218.078 32.574 217.99 32.7897C217.903 33.0055 217.772 33.2014 217.608 33.3661C217.443 33.5307 217.247 33.6607 217.031 33.7483C216.815 33.836 216.584 33.8795 216.351 33.8764C216.115 33.8805 215.881 33.8375 215.662 33.75C215.442 33.6624 215.243 33.532 215.075 33.3665C214.904 33.2056 214.768 33.0106 214.677 32.7942C214.586 32.5778 214.541 32.3447 214.546 32.1099V31.088C212.634 33.0778 210.396 34.0727 207.83 34.0727L207.824 34.0612ZM208.336 30.7224C209.516 30.7282 210.68 30.4525 211.732 29.918C212.791 29.3819 213.742 28.6567 214.54 27.7781V19.5419C213.742 18.6633 212.791 17.9381 211.732 17.402C210.68 16.8669 209.516 16.5905 208.336 16.5957C206.397 16.5957 204.839 17.2115 203.662 18.4431C202.484 19.6747 201.895 21.4169 201.895 23.6696C201.895 25.9211 202.484 27.662 203.662 28.8923C204.839 30.1227 206.397 30.7365 208.336 30.734V30.7224ZM226.125 33.786C225.542 33.784 224.984 33.5516 224.572 33.1395C224.16 32.7275 223.927 32.1692 223.925 31.5865V31.3671C223.928 30.7847 224.161 30.227 224.573 29.8151C224.984 29.4033 225.542 29.1706 226.125 29.1675H226.509C227.093 29.169 227.652 29.4011 228.065 29.8131C228.478 30.2251 228.712 30.7837 228.715 31.3671V31.6018C228.713 32.1842 228.481 32.7422 228.069 33.1542C227.657 33.5662 227.1 33.7989 226.517 33.8014L226.125 33.786ZM239.632 34.0612C238.525 34.0714 237.431 33.8299 236.432 33.3549C235.472 32.9037 234.662 32.188 234.095 31.292C233.511 30.3574 233.21 29.2729 233.231 28.1707C233.231 26.2335 233.997 24.6889 235.529 23.5369C237.061 22.3848 239.306 21.8075 242.264 21.8049H247.017V21.4913C247.017 19.7632 246.591 18.5194 245.74 17.7599C244.888 17.0004 243.559 16.6207 241.754 16.6207C240.865 16.6113 239.978 16.69 239.104 16.8555C238.233 17.0395 237.374 17.276 236.532 17.5636C236.365 17.6096 236.194 17.636 236.022 17.6425C235.831 17.644 235.642 17.6063 235.466 17.5319C235.29 17.4574 235.131 17.3477 235 17.2096C234.86 17.0715 234.749 16.9062 234.675 16.7239C234.601 16.5416 234.565 16.346 234.569 16.1492C234.569 15.4436 234.909 14.9459 235.589 14.6559C237.735 13.7312 240.046 13.2507 242.384 13.2435C244.189 13.2435 245.713 13.6097 246.958 14.3423C248.132 15.0032 249.087 15.9932 249.706 17.1903C250.298 18.3648 250.602 19.6639 250.591 20.9794V32.0945C250.595 32.3295 250.551 32.5628 250.459 32.7793C250.368 32.9958 250.231 33.1906 250.06 33.3511C249.892 33.5166 249.692 33.647 249.473 33.7346C249.254 33.8221 249.02 33.8651 248.784 33.861C248.551 33.8644 248.32 33.821 248.104 33.7334C247.888 33.6459 247.692 33.5159 247.527 33.3511C247.363 33.1864 247.233 32.9903 247.145 32.7745C247.057 32.5586 247.014 32.3274 247.017 32.0945V31.0726C245.078 33.0727 242.616 34.0727 239.632 34.0727V34.0612ZM240.967 30.9187C242.132 30.9151 243.279 30.6257 244.306 30.0758C245.331 29.5488 246.25 28.8363 247.015 27.9744V24.6876H242.734C238.781 24.6876 236.805 25.7216 236.805 27.7897C236.788 28.2165 236.866 28.6417 237.032 29.0351C237.199 29.4285 237.449 29.7806 237.767 30.0662C238.408 30.6435 239.475 30.9315 240.967 30.9302V30.9187ZM258.286 9.5583C257.756 9.55577 257.249 9.34411 256.874 8.96933C256.499 8.59456 256.288 8.08698 256.285 7.55697V7.39917C256.287 6.86883 256.499 6.36076 256.873 5.98557C257.248 5.61038 257.756 5.39845 258.286 5.39592H258.523C259.054 5.39845 259.561 5.61038 259.936 5.98557C260.311 6.36076 260.522 6.86883 260.524 7.39917V7.55697C260.522 8.08698 260.31 8.59456 259.936 8.96933C259.561 9.34411 259.053 9.55577 258.523 9.5583H258.286ZM258.363 33.8687C258.131 33.8721 257.899 33.8287 257.683 33.7411C257.468 33.6536 257.271 33.5236 257.107 33.3588C256.942 33.1941 256.812 32.998 256.724 32.7822C256.637 32.5663 256.594 32.3351 256.597 32.1022V15.2621C256.593 15.0259 256.635 14.7912 256.723 14.5718C256.811 14.3524 256.941 14.1526 257.107 13.9843C257.268 13.8133 257.463 13.6778 257.679 13.5867C257.896 13.4955 258.129 13.4507 258.363 13.4551C258.603 13.4468 258.842 13.4878 259.065 13.5757C259.288 13.6636 259.49 13.7964 259.66 13.9659C259.829 14.1353 259.962 14.3379 260.05 14.5609C260.138 14.7839 260.179 15.0226 260.17 15.2621V32.1099C260.175 32.3449 260.13 32.5782 260.038 32.7947C259.947 33.0111 259.811 33.206 259.639 33.3665C259.471 33.5309 259.271 33.66 259.052 33.7463C258.833 33.8325 258.599 33.8742 258.363 33.8687Z" fill="#343C4C"/>
<path d="M30.3209 25.6767H25.5773V33.3511C25.5872 36.6906 24.2915 39.9018 21.9669 42.2994C19.6423 44.697 16.4727 46.0913 13.1344 46.1846C12.4578 46.1809 11.8094 45.9124 11.3284 45.4365C10.8473 44.9607 10.5717 44.3153 10.5606 43.6388C10.5495 42.9622 10.8039 42.3082 11.2691 41.8168C11.7344 41.3255 12.3736 41.0359 13.0498 41.01H13.2133C15.1669 40.8965 17.0031 40.0399 18.3453 38.6157C19.6874 37.1916 20.4339 35.308 20.4316 33.3511V25.6767H18.5207C17.8467 25.6583 17.2065 25.3777 16.7363 24.8945C16.2661 24.4113 16.003 23.7637 16.003 23.0894C16.003 22.4152 16.2661 21.7676 16.7363 21.2844C17.2065 20.8012 17.8467 20.5205 18.5207 20.5021H20.4316V12.8374C20.4221 9.48874 21.7247 6.26958 24.0604 3.8699C26.396 1.47023 29.5788 0.081011 32.9265 0C33.6054 0.0258048 34.247 0.317532 34.7127 0.81222C35.1784 1.30691 35.4309 1.96488 35.4158 2.64413C35.4006 3.32339 35.119 3.96944 34.6317 4.44286C34.1443 4.91629 33.4904 5.17911 32.811 5.1746C30.8533 5.28254 29.0117 6.13751 27.6658 7.56324C26.3199 8.98897 25.5724 10.8768 25.5773 12.8374V20.5098H30.3209C31.0073 20.5098 31.6657 20.7825 32.1511 21.2679C32.6365 21.7533 32.9091 22.4116 32.9091 23.0981C32.9091 23.7845 32.6365 24.4429 32.1511 24.9283C31.6657 25.4137 31.0073 25.6864 30.3209 25.6864V25.6767ZM9.81298 43.6021C9.81266 43.0688 9.93751 42.5429 10.1775 42.0666C10.4175 41.5903 10.7659 41.177 11.1947 40.8599C9.3481 40.4566 7.7151 39.3865 6.60819 37.8544C5.50129 36.3223 4.99822 34.4359 5.19525 32.5561C5.39228 30.6763 6.27559 28.9351 7.67612 27.6659C9.07665 26.3966 10.896 25.6884 12.7861 25.6767H16.4424C16.0704 25.3561 15.7719 24.959 15.5672 24.5125C15.3626 24.066 15.2567 23.5806 15.2567 23.0894C15.2567 22.5983 15.3626 22.1129 15.5672 21.6664C15.7719 21.2199 16.0704 20.8228 16.4424 20.5021H12.7861C9.55837 20.5174 6.45465 21.7472 4.09237 23.9468C1.73009 26.1464 0.28235 29.1546 0.037146 32.3731C-0.208058 35.5915 0.76724 38.7843 2.76903 41.3164C4.77082 43.8485 7.65241 45.5343 10.8406 46.0384C10.5159 45.721 10.2578 45.3421 10.0813 44.9238C9.90489 44.5055 9.81366 44.0562 9.81298 43.6021ZM35.1683 0.144327C35.5192 0.490206 35.791 0.907841 35.9654 1.36861C36.1397 1.82938 36.2124 2.3224 36.1784 2.81387C36.1444 3.30535 36.0045 3.78366 35.7684 4.21604C35.5323 4.64842 35.2055 5.02465 34.8104 5.31893C36.6689 5.71115 38.316 6.77828 39.4335 8.31414C40.551 9.84999 41.0596 11.7455 40.861 13.6345C40.6624 15.5235 39.7707 17.2718 38.3581 18.5417C36.9456 19.8115 35.1126 20.5127 33.2132 20.5098H32.3934C32.7649 20.831 33.0629 21.2284 33.2672 21.675C33.4714 22.1216 33.5772 22.607 33.5772 23.0981C33.5772 23.5892 33.4714 24.0745 33.2672 24.5211C33.0629 24.9678 32.7649 25.3652 32.3934 25.6864H33.2132C35.3263 25.6763 37.4043 25.145 39.263 24.1397C41.1217 23.1344 42.7036 21.686 43.8686 19.923C45.0336 18.16 45.7457 16.1368 45.9416 14.0328C46.1376 11.9287 45.8115 9.80885 44.9922 7.86101C44.1541 5.84013 42.8103 4.06883 41.0898 2.71741C39.3694 1.366 37.3302 0.479902 35.1683 0.144327Z" fill="url(#paint0_linear_29_356)"/>
<defs>
<linearGradient id="paint0_linear_29_356" x1="-0.432313" y1="23.1289" x2="45.5599" y2="23.1289" gradientUnits="userSpaceOnUse">
<stop stop-color="#3186C8"/>
<stop offset="0.18" stop-color="#269FCA"/>
<stop offset="0.38" stop-color="#1DB4CC"/>
<stop offset="0.5" stop-color="#1ABBCD"/>
<stop offset="1" stop-color="#6FC6AA"/>
</linearGradient>
</defs>
</svg>
