<svg width="34" height="28" viewBox="0 0 34 28" fill="none" xmlns="http://www.w3.org/2000/svg">
<path d="M33.6329 3.24319C32.3961 3.79124 31.0674 4.16155 29.6706 4.32893C31.1118 3.46655 32.1901 2.10925 32.7042 0.510312C31.3501 1.31461 29.8681 1.88074 28.3227 2.18411C27.2834 1.07446 25.9069 0.338972 24.4068 0.0918252C22.9067 -0.155322 21.3669 0.0997017 20.0266 0.817302C18.6863 1.5349 17.6204 2.67493 16.9944 4.06039C16.3684 5.44585 16.2173 6.99923 16.5646 8.47935C13.8209 8.34159 11.1368 7.62845 8.68658 6.38623C6.23632 5.144 4.07464 3.40044 2.34183 1.2687C1.74934 2.29076 1.40865 3.47574 1.40865 4.73775C1.40799 5.87385 1.68777 6.99255 2.22315 7.99459C2.75854 8.99663 3.53298 9.85103 4.47777 10.482C3.38207 10.4471 2.31054 10.151 1.35237 9.61842V9.70729C1.35226 11.3007 1.90343 12.8451 2.91238 14.0784C3.92132 15.3117 5.32588 16.158 6.88774 16.4736C5.87129 16.7487 4.80562 16.7892 3.77122 16.5921C4.21188 17.9631 5.07026 19.162 6.22617 20.021C7.38208 20.88 8.77767 21.356 10.2175 21.3824C7.77327 23.3012 4.75459 24.342 1.64713 24.3374C1.09668 24.3376 0.546688 24.3054 0 24.2412C3.15425 26.2692 6.82603 27.3456 10.576 27.3414C23.2702 27.3414 30.2098 16.8276 30.2098 7.70911C30.2098 7.41286 30.2023 7.11365 30.189 6.8174C31.5389 5.84123 32.704 4.63243 33.6299 3.24763L33.6329 3.24319Z" fill="#1AB9CC"/>
</svg>
